Coordinates
version=1
nRows=24
nColumns=22
inDegrees=yes

Units are S.I. units (second, meters, Newtons, ...)
If the header above contains a line with 'inDegrees', this indicates whether rotational values are in degrees (yes) or radians (no).

endheader
time	pelvis_tilt	pelvis_list	pelvis_rotation	pelvis_tx	pelvis_ty	pelvis_tz	hip_flexion_r	hip_adduction_r	hip_rotation_r	knee_angle_r	ankle_angle_r	subtalar_angle_r	hip_flexion_l	hip_adduction_l	hip_rotation_l	knee_angle_l	ankle_angle_l	subtalar_angle_l	lumbar_extension	lumbar_bending	lumbar_rotation
      4.07000000	     -0.12348723	     -0.77622205	    -91.97781061	      0.45419570	      0.90868362	      0.57964956	    -12.24944332	      1.62141612	      6.74155121	    -29.57081962	      4.72154604	     -0.26838540	     27.40722057	     -1.84198619	     -3.24350934	    -28.41957075	     -0.95280830	     -1.49833030	     -2.23137073	     -4.87158340	      3.14938669
      4.08000000	      0.08072031	     -0.82905744	    -92.57112073	      0.45580847	      0.91094752	      0.58860309	    -11.89118193	      0.96056673	      6.33013139	    -30.73244450	      2.62699953	     -0.10604937	     26.50908937	     -1.72902276	     -3.98930197	    -28.21003450	     -0.32627645	     -1.63888506	     -2.13800871	     -5.18021680	      3.46059677
      4.09000000	      0.23296430	     -0.84964171	    -93.26424378	      0.45723979	      0.91308966	      0.59714582	    -11.29278944	      0.31558582	      5.92613465	    -32.15113064	      0.56757935	     -0.00979758	     25.62965671	     -1.69166983	     -4.80868587	    -27.93949801	      0.24900973	     -1.78224411	     -2.03508069	     -5.40737939	      3.84629486
      4.10000000	      0.34811028	     -0.85286745	    -94.03273920	      0.45852358	      0.91510201	      0.60528851	    -10.47240182	     -0.32687060	      5.50084500	    -33.82245272	     -1.42013052	      0.07757355	     24.76500993	     -1.69912502	     -5.66840137	    -27.62385284	      0.77994262	     -1.89458787	     -1.94051381	     -5.57386491	      4.27163586
      4.11000000	      0.46986823	     -0.86525680	    -94.85724389	      0.45971009	      0.91697007	      0.61305836	     -9.45868736	     -1.01900900	      5.02492035	    -35.74760444	     -3.25268874	      0.25082980	     23.91093323	     -1.70320699	     -6.61031108	    -27.30535071	      1.32898280	     -2.10657285	     -1.88366060	     -5.73332450	      4.68391305
      4.12000000	      0.58787461	     -0.87635475	    -95.70959549	      0.46085733	      0.91867385	      0.62045010	     -8.24907641	     -1.74624200	      4.48889788	    -37.90341567	     -4.96901210	      0.49418105	     23.08793725	     -1.69198910	     -7.54282648	    -26.98736034	      1.83190945	     -2.29165025	     -1.85835398	     -5.87387921	      5.08920105
      4.13000000	      0.72232535	     -0.90689452	    -96.57126646	      0.46200318	      0.92022472	      0.62749130	     -6.88397705	     -2.53244833	      3.89179521	    -40.25168836	     -6.57160415	      0.81301723	     22.28205627	     -1.63422836	     -8.44636254	    -26.67729365	      2.29265831	     -2.44830296	     -1.88588734	     -6.02464401	      5.47795800
      4.14000000	      0.91222672	     -0.92510237	    -97.41470769	      0.46319587	      0.92150985	      0.63420197	     -5.34061931	     -3.41314707	      3.24262625	    -42.77364106	     -7.98025921	      1.30577654	     21.56386288	     -1.49841501	     -9.36079579	    -26.42744739	      2.77043091	     -2.71139736	     -1.92548146	     -6.22830000	      5.75860234
      4.15000000	      1.14312045	     -0.98107968	    -98.23338053	      0.46444916	      0.92265325	      0.64063788	     -3.71840066	     -4.37450762	      2.56922065	    -45.37339018	     -9.28430419	      1.82719248	     20.85256980	     -1.27757161	    -10.21346619	    -26.18808529	      3.19347344	     -2.93349270	     -2.02887029	     -6.47957503	      5.99880269
      4.16000000	      1.41371268	     -1.07542287	    -99.00749540	      0.46579175	      0.92365597	      0.64683873	     -2.05532808	     -5.40510697	      1.89981449	    -47.98787721	    -10.43270866	      2.33685687	     20.15239502	     -0.96902845	    -10.99089774	    -25.96444406	      3.58278001	     -3.12921793	     -2.19513483	     -6.77786266	      6.18226844
      4.17000000	      1.72981113	     -1.17746526	    -99.72332505	      0.46718751	      0.92447812	      0.65282546	     -0.35392900	     -6.46900982	      1.30665483	    -50.56009893	    -11.29660011	      2.87306568	     19.50473825	     -0.58133312	    -11.71629837	    -25.76846741	      3.97690912	     -3.39388555	     -2.37960492	     -7.13462770	      6.21995654
      4.18000000	      2.05301234	     -1.33839384	   -100.37260316	      0.46866774	      0.92525721	      0.65864350	      1.28479064	     -7.53184636	      0.77564607	    -53.01205944	    -11.86417515	      3.24285815	     18.83888294	     -0.13803935	    -12.34855636	    -25.58566288	      4.31735669	     -3.59350666	     -2.64633439	     -7.50972501	      6.20768569
      4.19000000	      2.36403439	     -1.53396866	   -100.95491092	      0.47016320	      0.92600253	      0.66430349	      2.85597263	     -8.52099471	      0.37992614	    -55.29952168	    -12.05120024	      3.46606844	     18.15796143	      0.33639739	    -12.86166169	    -25.38615939	      4.68510131	     -3.74846454	     -2.96553284	     -7.88535384	      6.07881700
      4.20000000	      2.64859027	     -1.75376243	   -101.44840369	      0.47170286	      0.92670089	      0.66979011	      4.34770058	     -9.41935873	      0.07144141	    -57.40224049	    -11.72994491	      3.59661888	     17.51113947	      0.80334092	    -13.32900216	    -25.24700171	      4.99462854	     -3.93749114	     -3.33357921	     -8.24228241	      5.84309166
      4.21000000	      2.88874188	     -1.99409989	   -101.86112479	      0.47321622	      0.92741027	      0.67509347	      5.75001905	    -10.18432735	     -0.13966911	    -59.29281377	    -11.01831355	      3.61832956	     16.87493571	      1.23929154	    -13.74327510	    -25.12994558	      5.24034585	     -4.19410644	     -3.74639241	     -8.56736873	      5.49689636
      4.22000000	      3.06544256	     -2.27354889	   -102.19559546	      0.47472279	      0.92818164	      0.68023497	      7.02003382	    -10.79249400	     -0.25800831	    -60.94563456	     -9.95996486	      3.60118362	     16.20234539	      1.64317007	    -14.03523013	    -25.00384715	      5.50533452	     -4.36808088	     -4.22737404	     -8.83275706	      5.06486252
      4.23000000	      3.19058654	     -2.58349189	   -102.44970419	      0.47618820	      0.92899743	      0.68518716	      8.16718617	    -11.26130315	     -0.32298195	    -62.36073224	     -8.69092427	      3.56260520	     15.51574380	      2.00736581	    -14.26550862	    -24.89305819	      5.74662942	     -4.54317229	     -4.76632830	     -9.06167227	      4.55457307
      4.24000000	      3.25580818	     -2.90843032	   -102.62723235	      0.47762481	      0.92985700	      0.68996958	      9.18755118	    -11.57096651	     -0.32677410	    -63.51844063	     -7.29361098	      3.57297351	     14.81005037	      2.32283166	    -14.42087941	    -24.76741980	      5.97230587	     -4.66661034	     -5.33929940	     -9.22759936	      3.95390443
      4.25000000	      3.27628896	     -3.25464795	   -102.72809900	      0.47902525	      0.93075345	      0.69456480	     10.07753361	    -11.75217620	     -0.29767857	    -64.42595835	     -5.90505835	      3.60585577	     14.08776648	      2.59898132	    -14.52719274	    -24.64179096	      6.18359426	     -4.77879326	     -5.95381945	     -9.35617430	      3.28892183
      4.26000000	      3.24338303	     -3.58856401	   -102.75460026	      0.48039091	      0.93161323	      0.69891650	     10.87271787	    -11.78290846	     -0.23139667	    -65.09532574	     -4.56708263	      3.69386019	     13.40443032	      2.81238674	    -14.56893321	    -24.55670865	      6.40652987	     -4.84002103	     -6.57941198	     -9.42934246	      2.58233718
      4.27000000	      3.19944320	     -3.97003628	   -102.71582551	      0.48173725	      0.93258312	      0.70318988	     11.49248917	    -11.75092657	     -0.15029463	    -65.49855635	     -3.34508770	      3.76960746	     12.62296540	      3.03619872	    -14.59170417	    -24.36778608	      6.57756399	     -4.94053757	     -7.24553522	     -9.49550905	      1.78846675
      4.28000000	      3.11656433	     -4.31400740	   -102.61522402	      0.48305490	      0.93344996	      0.70720655	     12.05336996	    -11.59479070	     -0.04678487	    -65.69061801	     -2.20643796	      3.88124945	     11.91773735	      3.19982963	    -14.55837266	    -24.23586270	      6.77086557	     -5.00016805	     -7.88696694	     -9.51182348	      0.97516052
      4.29000000	      3.02198489	     -4.63784420	   -102.45696450	      0.48435754	      0.93424899	      0.71103288	     12.53772769	    -11.36789743	      0.06125535	    -65.67537281	     -1.16153156	      4.00296074	     11.24949021	      3.34003858	    -14.49460184	    -24.11325474	      6.96219231	     -5.04961501	     -8.50816210	     -9.50942080	      0.13379747
      4.30000000	      2.92438472	     -4.92629035	   -102.24958177	      0.48567129	      0.93494406	      0.71466974	     12.97362380	    -11.08712632	      0.17437589	    -65.47295874	     -0.19821352	      4.12680841	     10.63946947	      3.46628560	    -14.38806868	    -24.00454574	      7.15010004	     -5.09631709	     -9.09138075	     -9.48742042	     -0.72080650
